/* XPM */
static char * hide_prelight_xpm[] = {
"24 26 4 1",
" 	c None",
".	c #181818",
"+	c #efefef",
"@	c #5b5b5b",
"@@@@@@@@@@@@@@@@@@@@@@@@",
"........................",
"........................",
"........................",
"........................",
"........................",
"........................",
"........................",
"........................",
"........................",
"........................",
"........................",
"........++++++++........",
"........++++++++........",
"........................",
"........................",
"........................",
"........................",
"........................",
"........................",
"........................",
"........................",
"........................",
"........................",
"........................",
"........................"};
